HIERARCHY
ROOT SpineBase
{
  OFFSET 0.000000 0.000000 0.000000
  CHANNELS 6 Xposition Yposition Zposition Zrotation Xrotation Yrotation
  JOINT SpineMid
  {
    OFFSET 0.000000 27.554491 0.000000
    CHANNELS 3 Zrotation Xrotation Yrotation
    JOINT SpineShoulder
    {
      OFFSET -0.046309 20.741913 -0.692045
      CHANNELS 3 Zrotation Xrotation Yrotation
      JOINT Neck
      {
        OFFSET 0.034580 6.967725 -0.523748
        CHANNELS 3 Zrotation Xrotation Yrotation
        JOINT Head
        {
          OFFSET 3.571988 13.969422 0.819076
          CHANNELS 3 Zrotation Xrotation Yrotation
          End Site
          {
            OFFSET 0 0 0
          }
        }
      }
      JOINT ShoulderLeft
      {
        OFFSET -10.881165 0.924524 -10.455303
        CHANNELS 3 Zrotation Xrotation Yrotation
        JOINT ElbowLeft
        {
          OFFSET -2.964608 -21.069908 -9.496480
          CHANNELS 3 Zrotation Xrotation Yrotation
          JOINT WristLeft
          {
            OFFSET -6.213076 -12.413329 -3.701228
            CHANNELS 3 Zrotation Xrotation Yrotation
            JOINT HandLeft
            {
              OFFSET -2.029393 -2.995813 -1.718441
              CHANNELS 3 Zrotation Xrotation Yrotation
              JOINT HandTipLeft
              {
                OFFSET 0.627997 -3.147410 -2.043587
                CHANNELS 3 Zrotation Xrotation Yrotation
                End Site
                {
                  OFFSET 0 0 0
                }
              }
              JOINT ThumbLeft
              {
                OFFSET -3.558294 2.305160 0.120470
                CHANNELS 3 Zrotation Xrotation Yrotation
                End Site
                {
                  OFFSET 0 0 0
                }
              }
            }
          }
        }
      }
      JOINT ShoulderRight
      {
        OFFSET 15.305791 -3.879394 6.162147
        CHANNELS 3 Zrotation Xrotation Yrotation
        JOINT ElbowRight
        {
          OFFSET 6.217423 -23.673211 -3.068722
          CHANNELS 3 Zrotation Xrotation Yrotation
          JOINT WristRight
          {
            OFFSET 5.789376 -15.025786 -13.098809
            CHANNELS 3 Zrotation Xrotation Yrotation
            JOINT HandRight
            {
              OFFSET 0.516937 1.113980 -1.525009
              CHANNELS 3 Zrotation Xrotation Yrotation
              JOINT HandTipRight
              {
                OFFSET 3.917149 -2.798829 -5.906720
                CHANNELS 3 Zrotation Xrotation Yrotation
                End Site
                {
                  OFFSET 0 0 0
                }
              }
              JOINT ThumbRight
              {
                OFFSET -4.178634 -0.268516 -0.412176
                CHANNELS 3 Zrotation Xrotation Yrotation
                End Site
                {
                  OFFSET 0 0 0
                }
              }
            }
          }
        }
      }
    }
  }
  JOINT HipLeft
  {
    OFFSET -6.000163 1.866723 -7.042179
    CHANNELS 3 Zrotation Xrotation Yrotation
    JOINT KneeLeft
    {
      OFFSET 9.202875 4.759508 -30.261996
      CHANNELS 3 Zrotation Xrotation Yrotation
      JOINT AnkleLeft
      {
        OFFSET 4.336118 -32.846361 -0.467500
        CHANNELS 3 Zrotation Xrotation Yrotation
        JOINT FootLeft
        {
          OFFSET 5.905221 -1.641673 -13.142193
          CHANNELS 3 Zrotation Xrotation Yrotation
          End Site
          {
            OFFSET 0 0 0
          }
        }
      }
    }
  }
  JOINT HipRight
  {
    OFFSET 6.984576 1.266640 0.981718
    CHANNELS 3 Zrotation Xrotation Yrotation
    JOINT KneeRight
    {
      OFFSET 23.726685 1.763403 -15.222918
      CHANNELS 3 Zrotation Xrotation Yrotation
      JOINT AnkleRight
      {
        OFFSET -9.290789 -32.728516 -10.232752
        CHANNELS 3 Zrotation Xrotation Yrotation
        JOINT FootRight
        {
          OFFSET 5.049228 -2.892188 -10.765007
          CHANNELS 3 Zrotation Xrotation Yrotation
          End Site
          {
            OFFSET 0 0 0
          }
        }
      }
    }
  }
}
MOTION
Frames: 5
Frame Time: 0.033333
-59.749676 36.160756 351.975126 1.144357 2.823256 -17.872656 -0.198036 -0.027867 17.877202 0.049991 -0.007203 0.024192 -5.721125 10.189766 -2.801212 0.000000 0.000000 0.000000 5.642636 0.982996 -3.489557 42.112304 8.024892 -23.935832 -7.007930 -3.096912 -13.935526 -8.551864 1.529929 18.357981 0.000000 0.000000 0.000000 0.000000 0.000000 0.000000 50.637862 30.735774 -10.443043 1.669666 0.212218 -23.365218 -71.084449 -51.040485 -38.555031 19.943080 39.715444 20.516630 0.000000 0.000000 0.000000 0.000000 0.000000 0.000000 -0.162472 -4.078521 18.118254 0.265750 1.007864 -0.278278 -5.653518 -12.414248 3.119493 0.000000 0.000000 0.000000 -6.014086 -9.815257 16.555672 5.374530 3.290321 1.553890 -12.848754 15.778659 60.618279 0.000000 0.000000 0.000000
-59.856751 36.167669 351.972013 0.965355 2.846102 -17.631059 -0.146653 -0.019816 17.636979 -0.011536 -0.001680 0.012490 -6.764339 10.120808 -2.618110 0.000000 0.000000 0.000000 5.892181 1.156017 -3.530355 37.049109 7.914473 -20.848609 -8.881403 -1.885819 -12.127591 -7.431908 -4.729714 18.724880 0.000000 0.000000 0.000000 0.000000 0.000000 0.000000 51.989297 30.348763 -10.774502 0.347403 -0.369478 -23.538770 -70.414072 -49.564479 -38.503456 21.306237 41.533357 20.380331 0.000000 0.000000 0.000000 0.000000 0.000000 0.000000 -0.030965 -4.170678 17.690576 0.328188 1.119215 -0.086516 -4.879926 -10.584297 4.330618 0.000000 0.000000 0.000000 -5.771255 -9.581434 16.076339 5.370058 3.231857 1.756081 -14.621748 20.010609 64.355650 0.000000 0.000000 0.000000
-59.952403 36.160692 351.976850 0.772076 2.872647 -17.481267 -0.126995 0.003901 17.486893 -0.086778 0.003485 -0.002478 -7.630430 9.734282 -2.396304 0.000000 0.000000 0.000000 5.912332 1.176150 -3.415604 39.677559 7.629230 -22.034798 -8.012832 -1.828629 -13.727638 -14.331548 -7.941838 22.435244 0.000000 0.000000 0.000000 0.000000 0.000000 0.000000 52.709635 30.027058 -10.837303 -0.017091 0.330731 -23.700626 -70.322513 -49.547726 -38.640881 23.807037 43.350958 17.094005 0.000000 0.000000 0.000000 0.000000 0.000000 0.000000 0.129986 -4.242393 17.412876 1.226372 0.875785 -0.023628 -3.357045 -4.328071 5.515324 0.000000 0.000000 0.000000 -5.519135 -9.382508 15.676827 5.227257 3.352782 1.984096 -14.577688 22.638629 63.618942 0.000000 0.000000 0.000000
-60.026246 36.141481 351.989904 0.592644 2.883383 -17.458060 -0.145664 0.019230 17.461405 -0.164231 -0.000165 -0.018589 -8.294613 9.206245 -2.169055 0.000000 0.000000 0.000000 5.603033 1.250279 -3.150485 32.519099 7.148799 -17.719811 -8.117892 1.170095 -13.114244 -16.711401 -10.669623 22.891307 0.000000 0.000000 0.000000 0.000000 0.000000 0.000000 53.350794 29.897854 -10.910284 -0.705694 -0.210005 -23.683842 -68.800037 -49.703861 -36.311355 26.452442 44.426767 12.671050 0.000000 0.000000 0.000000 0.000000 0.000000 0.000000 0.288432 -4.256791 17.304182 1.348961 0.635825 0.029144 -3.382675 -3.332412 8.285455 0.000000 0.000000 0.000000 -5.246396 -9.172953 15.435410 4.831069 3.686126 2.211063 -13.908539 22.026939 62.509534 0.000000 0.000000 0.000000
-60.060651 36.110014 352.020649 0.453772 2.864728 -17.568090 -0.225543 0.040278 17.566333 -0.235697 -0.013004 -0.034727 -8.700469 8.585474 -1.957184 0.000000 0.000000 0.000000 5.112488 1.275855 -2.791480 32.366580 6.753441 -17.298399 -6.697721 1.805548 -13.958344 -17.958585 -13.715762 23.706273 0.000000 0.000000 0.000000 0.000000 0.000000 0.000000 53.824263 29.978982 -10.970616 -1.515915 -0.847882 -23.496368 -68.975342 -49.535510 -36.839087 29.343070 45.161292 9.019227 0.000000 0.000000 0.000000 0.000000 0.000000 0.000000 0.423493 -4.181244 17.420754 1.436415 0.322952 -0.009617 -2.473740 0.981952 12.352785 0.000000 0.000000 0.000000 -5.010272 -8.989414 15.412795 4.661944 3.750002 2.350738 -13.371159 19.474479 61.592920 0.000000 0.000000 0.000000
